# Alias OBJ Model File
# Exported from SketchUp, (c) 2000-2012 Trimble Navigation Limited
# File units = meters

mtllib eslabon.mtl

g Mesh1 Model

usemtl FrontColor
v 0.01 0.13 0.06
vt 0.393701 -1.05035
vn 7.58255e-032 0.970143 0.242536
v -0.01 0.13 0.06
vt -0.393701 -1.05035
v -2.81997e-018 0.12 0.1
vt -1.11022e-016 -2.67362
f 1/1/1 2/2/1 3/3/1

v 0.01 0.17 0.06
vt 0.393701 6.69291
vn 0 0.382683 0.92388
vt -0.393701 5.11811
vn 0 0 1
vt 0.393701 5.11811
f 4/4/2 2/5/3 1/6/3

v -0.01 0.17 0.06
vt -0.393701 6.69291
f 2/5/3 4/4/2 5/7/2

v 0.01 0.18 0.05
vt 0.393701 3.61905
vn 0 0.92388 0.382683
vt -0.393701 3.06227
vt 0.393701 3.06227
f 6/8/4 5/9/2 4/10/2

v -0.01 0.18 0.05
vt -0.393701 3.61905
f 5/9/2 6/8/4 7/11/4

vt 0.393701 -1.9685
v -0.01 0.18 -0.05
vt -0.393701 1.9685
vn 0 0.92388 -0.382683
vt -0.393701 -1.9685
f 6/12/4 8/13/5 7/14/4

v 0.01 0.18 -0.05
vt 0.393701 1.9685
f 8/13/5 6/12/4 9/15/5

vt -1.9685 4.7326
vn 0.673887 0.673887 0.302905
v 0.02 0.17 -0.05
vt 1.9685 4.17583
vn 0.738834 0.47651 -0.47651
vt 1.9685 4.7326
vn 0.673887 0.673887 -0.302905
f 6/16/6 10/17/7 9/18/8

v 0.02 0.17 0.05
vt -1.9685 4.17583
vn 0.738834 0.47651 0.47651
f 10/17/7 6/16/6 11/19/9

vt -1.11355 4.82183
vt -1.39194 4.33965
vn 0.673887 0.302905 0.673887
vt -0.835165 4.33965
f 6/20/6 4/21/10 11/22/9

vt -1.39194 6.69291
v 0.02 -0.03 0.05
vt -0.835165 -1.1811
vn 0.738834 -0.47651 0.47651
vt -0.835165 6.69291
f 4/23/10 12/24/11 11/25/9

vt -1.39194 5.11811
vn 0.707107 -5.02461e-019 0.707107
f 1/26/12 12/24/11 4/23/10

v 0.01 0.11 0.06
vt -1.39194 4.33071
f 13/27/12 12/24/11 1/26/12

v 0.01 0.03 0.06
vt -1.39194 1.1811
f 14/28/12 12/24/11 13/27/12

v 0.01 0.01 0.06
vt -1.39194 0.393701
f 15/29/12 12/24/11 14/28/12

v 0.01 -0.03 0.06
vt -1.39194 -1.1811
vn 0.673887 -0.302905 0.673887
f 12/24/11 15/29/12 16/30/13

vt 0.393701 0.393701
v -0.01 -0.03 0.06
vt -0.393701 -1.1811
vn 0 -0.382683 0.92388
vt 0.393701 -1.1811
f 15/31/3 17/32/14 16/33/14

v -0.01 0.01 0.06
vt -0.393701 0.393701
f 17/32/14 15/31/3 18/34/3

vt 0.393701 2.38716
vn -5.42879e-016 -0.970143 0.242536
v -4.22995e-018 0.02 0.1
vt 8.64586e-015 4.01043
vt -0.393701 2.38716
f 15/35/15 19/36/15 18/37/15

vt -2.19619 1.1811
vn 0.970143 0 0.242536
vt -3.81946 0.787402
vt -2.19619 0.393701
f 14/38/16 19/39/16 15/40/16

vt 0.393701 -2.00522
vn 5.42879e-016 0.970143 0.242536
v -0.01 0.03 0.06
vt -0.393701 -2.00522
vt -8.97893e-015 -3.62849
f 14/41/17 20/42/17 19/43/17

vt 0.393701 4.33071
vt -0.393701 1.1811
vt 0.393701 1.1811
f 13/44/3 20/45/3 14/46/3

v -0.01 0.11 0.06
vt -0.393701 4.33071
f 20/45/3 13/44/3 21/47/3

vt 0.393701 3.34203
vn 0 -0.970143 0.242536
vt -1.11022e-016 4.9653
vt -0.393701 3.34203
f 13/48/18 3/49/18 21/50/18

vt -2.19619 5.11811
vt -3.81946 4.72441
vt -2.19619 4.33071
f 1/51/16 3/52/16 13/53/16

vt 2.19619 4.33071
vn -0.970143 -6.51455e-017 0.242536
vt 3.81946 4.72441
vt 2.19619 5.11811
f 21/54/19 3/55/19 2/56/19

v -0.02 0.17 0.05
vt 0.835165 6.69291
vn -0.738834 0.47651 0.47651
vt 1.39194 4.33071
vn -0.707107 1.50738e-018 0.707107
vt 1.39194 5.11811
f 22/57/20 21/58/21 2/59/21

vt 1.39194 1.1811
f 22/57/20 20/60/21 21/58/21

vt 1.39194 0.393701
f 22/57/20 18/61/21 20/60/21

v -0.02 -0.03 0.05
vt 0.835165 -1.1811
vn -0.738834 -0.47651 0.47651
f 23/62/22 18/61/21 22/57/20

vt 1.39194 -1.1811
vn -0.673887 -0.302905 0.673887
f 18/61/21 23/62/22 17/63/23

v -0.01 -0.04 0.05
vt 1.11355 -0.321455
vn -0.673887 -0.673887 0.302905
vt 1.39194 0.160728
vt 0.835165 0.160728
f 24/64/24 17/65/23 23/66/22

vt -0.393701 0.278388
vn 0 -0.92388 0.382683
vt 0.393701 0.835165
vt -0.393701 0.835165
f 24/67/25 16/68/14 17/69/14

v 0.01 -0.04 0.05
vt 0.393701 0.278388
f 16/68/14 24/67/25 25/70/25

v 0.01 -0.04 -0.05
vn 0 -0.92388 -0.382683
f 24/12/25 26/13/26 25/14/25

v -0.01 -0.04 -0.05
f 26/13/26 24/12/25 27/15/26

vt 1.9685 -0.835165
v -0.02 -0.03 -0.05
vt -1.9685 -0.278388
vn -0.738834 -0.47651 -0.47651
vt -1.9685 -0.835165
vn -0.673887 -0.673887 -0.302905
f 24/71/24 28/72/27 27/73/28

vt 1.9685 -0.278388
f 28/72/27 24/71/24 23/74/22

v -0.02 -0.01 0.03
vt 1.1811 -0.393701
vn -1 0 -0
vt -1.9685 -1.1811
vt 1.9685 -1.1811
f 29/75/29 28/76/29 23/77/29

v -0.02 -0.01 -0.03
vt -1.1811 -0.393701
f 28/76/29 29/75/29 30/78/29

v -0.01 -5.63993e-018 0.02
vt 0.787402 -0.278388
vn -0.816497 0.408248 -0.408248
vt -1.1811 -0.835165
vn -0.816497 0.408248 0.408248
vt 1.1811 -0.835165
f 31/79/30 30/80/31 29/81/30

v -0.01 -5.63993e-018 -0.02
vt -0.787402 -0.278388
f 30/80/31 31/79/30 32/82/31

v 0.01 -5.63993e-018 0.02
vt 0.393701 -0.787402
vn -1.99402e-016 0.707107 -0.707107
vt -0.393701 0.787402
vn -1.99402e-016 0.707107 0.707107
vt -0.393701 -0.787402
f 33/83/32 32/84/33 31/85/32

v 0.01 -5.63993e-018 -0.02
vt 0.393701 0.787402
f 32/84/33 33/83/32 34/86/33

vn 0.816497 0.408248 -0.408248
v 0.02 -0.01 -0.03
vn 0.816497 0.408248 0.408248
f 33/82/34 35/81/35 34/79/35

v 0.02 -0.01 0.03
f 35/81/35 33/82/34 36/80/34

vt -0.835165 -2.22045e-016
v 0.02 0.15 0.03
vt -1.39194 5.90551
vn 0.816497 -0.408248 -0.408248
vt -1.39194 -0.393701
f 33/87/34 37/88/36 36/89/34

v 0.01 0.14 0.02
vt -0.835165 5.51181
f 37/88/36 33/87/34 38/90/36

vt -0.393701 -2.22045e-016
v -0.01 0.14 0.02
vt 0.393701 5.51181
vn -1.99402e-016 -0.707107 -0.707107
vt -0.393701 5.51181
f 33/91/32 39/92/37 38/93/37

vt 0.393701 -2.22045e-016
f 39/92/37 33/91/32 31/94/32

vt 0.835165 -2.22045e-016
v -0.02 0.15 0.03
vt 1.39194 5.90551
vn -0.816497 -0.408248 -0.408248
vt 0.835165 5.51181
f 31/95/30 40/96/38 39/97/38

vt 1.39194 -0.393701
f 40/96/38 31/95/30 29/98/30

vt 1.1811 5.90551
f 23/77/29 40/99/29 29/75/29

vt 1.9685 6.69291
f 40/99/29 23/77/29 22/100/29

v -0.02 0.17 -0.05
vt -1.9685 6.69291
f 41/101/29 40/99/29 22/100/29

v -0.02 0.15 -0.03
vt -1.1811 5.90551
f 40/99/29 41/101/29 42/102/29

f 41/101/29 30/78/29 42/102/29

f 30/78/29 41/101/29 28/76/29

v -0.01 0.17 -0.06
vn -0.673887 0.302905 -0.673887
vn -0.738834 0.47651 -0.47651
f 43/23/39 28/24/27 41/25/40

v -0.01 -0.03 -0.06
vn -0.673887 -0.302905 -0.673887
f 28/24/27 43/23/39 44/30/41

v -0.01 0.13 -0.06
vn -0.707107 2.00984e-018 -0.707107
f 44/30/41 43/23/39 45/26/42

vn 0 0.382683 -0.92388
v 0.01 0.13 -0.06
vn 0 0 -1
f 43/4/43 46/5/44 45/6/44

v 0.01 0.17 -0.06
f 46/5/44 43/4/43 47/7/43

f 8/8/5 47/9/43 43/10/43

f 47/9/43 8/8/5 9/11/5

vt 1.39194 4.33965
vn 0.673887 0.302905 -0.673887
vt 1.11355 4.82183
vt 0.835165 4.33965
f 47/103/45 9/104/8 10/105/7

v 0.01 -0.03 -0.06
vn 0.673887 -0.302905 -0.673887
vt 1.39194 6.69291
f 10/57/7 48/63/46 47/106/45

v 0.02 -0.03 -0.05
vn 0.738834 -0.47651 -0.47651
f 48/63/46 10/57/7 49/62/47

v 0.02 0.15 -0.03
vn 1 0 -0
f 50/99/48 49/77/48 10/100/48

f 49/77/48 50/99/48 35/75/48

v 0.01 0.14 -0.02
vn 0.816497 -0.408248 0.408248
f 51/97/49 35/98/35 50/96/49

f 35/98/35 51/97/49 34/95/35

vn -1.99402e-016 -0.707107 0.707107
f 51/92/50 32/91/33 34/94/33

v -0.01 0.14 -0.02
f 32/91/33 51/92/50 52/93/50

f 51/84/50 39/83/37 52/86/50

f 39/83/37 51/84/50 38/85/37

vt 1.1811 4.7326
vt -0.787402 4.17583
vt 0.787402 4.17583
f 50/107/49 38/108/36 51/109/49

vt -1.1811 4.7326
f 38/108/36 50/107/49 37/110/36

f 10/100/48 37/102/48 50/99/48

f 37/102/48 10/100/48 11/101/48

f 11/101/48 36/78/48 37/102/48

f 36/78/48 11/101/48 12/76/48

f 49/77/48 36/78/48 12/76/48

f 36/78/48 49/77/48 35/75/48

vn 0.673887 -0.673887 -0.302905
f 12/72/11 26/71/51 49/74/47

vn 0.673887 -0.673887 0.302905
f 26/71/51 12/72/11 25/73/52

vt -0.835165 0.160728
vt -1.39194 0.160728
vt -1.11355 -0.321455
f 12/111/11 16/112/13 25/113/52

f 48/65/46 49/66/47 26/64/51

vn 0 -0.382683 -0.92388
f 26/67/26 44/68/53 48/69/53

f 44/68/53 26/67/26 27/70/26

f 44/112/41 27/113/28 28/111/27

v -0.01 0.01 -0.06
f 53/31/44 48/32/53 44/33/53

v 0.01 0.01 -0.06
f 48/32/53 53/31/44 54/34/44

vn -5.42879e-016 -0.970143 -0.242536
v -5.63993e-018 0.02 -0.1
vt -8.59035e-015 4.01043
f 54/37/54 53/35/54 55/114/54

vn -0.970143 2.17152e-017 -0.242536
v -0.01 0.03 -0.06
f 55/39/55 53/40/55 56/38/55

f 44/30/41 56/28/42 53/29/42

v -0.01 0.11 -0.06
f 44/30/41 57/27/42 56/28/42

f 44/30/41 45/26/42 57/27/42

v -5.63993e-018 0.12 -0.1
vn -0.970143 6.53266e-031 -0.242536
f 58/52/56 57/53/56 45/51/56

v 0.01 0.11 -0.06
vn -1.2832e-031 -0.970143 -0.242536
vt 2.22045e-016 4.9653
f 59/50/57 57/48/57 58/115/57

f 59/47/44 56/46/44 57/44/44

v 0.01 0.03 -0.06
f 56/46/44 59/47/44 60/45/44

vn 0.707107 1.25615e-018 -0.707107
f 47/106/45 60/60/58 59/58/58

f 47/106/45 54/61/58 60/60/58

f 47/106/45 48/63/46 54/61/58

vt 3.81946 0.787402
vn 0.970143 -9.33237e-032 -0.242536
vt 2.19619 1.1811
vt 2.19619 0.393701
f 55/116/59 60/117/59 54/118/59

vn 1.10747e-015 0.970143 -0.242536
vt 1.81993e-014 -3.62849
f 60/42/60 55/119/60 56/41/60

f 47/106/45 59/58/58 46/59/58

vn 0.970143 8.39914e-031 -0.242536
f 58/55/61 46/56/61 59/54/61

vn 1.98313e-031 0.970143 -0.242536
vt 2.22045e-016 -2.67362
f 46/2/62 58/120/62 45/1/62

vn -0.816497 -0.408248 0.408248
f 39/109/38 42/110/63 52/108/63

f 42/110/63 39/109/38 40/107/38

f 42/88/63 32/87/31 52/90/63

f 32/87/31 42/88/63 30/89/31

vn -0.673887 0.673887 -0.302905
f 43/21/39 41/22/40 8/20/64

f 22/17/20 8/16/64 41/19/40

vn -0.673887 0.673887 0.302905
f 8/16/64 22/17/20 7/18/65

vn -0.673887 0.302905 0.673887
f 22/105/20 5/103/66 7/104/65

f 22/57/20 2/59/21 5/106/66

vn -0.970143 8.68607e-017 0.242536
f 18/118/67 19/116/67 20/117/67

